<svg width="21" height="21" viewBox="0 0 21 21" fill="none" xmlns="http://www.w3.org/2000/svg">
<path d="M20.7809 9.26395C19.807 8.29636 18.6028 7.64046 17.2911 7.34735C17.4522 7.2128 17.6085 7.07128 17.7591 6.92163C19.1162 5.57304 19.8635 3.77996 19.8635 1.87285C19.8635 1.46223 19.5286 1.12944 19.1154 1.12944C16.906 1.12944 14.9264 2.12588 13.6073 3.68994C13.313 2.38491 12.6525 1.18655 11.6777 0.217795C11.5372 0.0782127 11.3471 0 11.1486 0C10.9502 0 10.7599 0.0782127 10.6196 0.217795C9.57425 1.25663 8.89103 2.55934 8.63211 3.97452C8.51951 3.8452 8.40164 3.71878 8.27813 3.59604C8.13786 3.45665 7.94753 3.37825 7.74901 3.37825C7.55069 3.37825 7.36016 3.45665 7.21989 3.59624C6.14976 4.65985 5.48894 5.97824 5.23627 7.35664C5.1221 7.22577 5.00288 7.09819 4.87839 6.97449C4.58616 6.68409 4.11257 6.68409 3.82053 6.97449C1.19752 9.58087 1.03056 13.7174 3.31888 16.519L0.219167 19.731C-0.0730577 20.0212 -0.0730577 20.492 0.219167 20.7822C0.36528 20.9274 0.55659 21 0.748095 21C0.9396 21 1.13091 20.9274 1.27702 20.7822L4.37654 17.5706C5.65259 18.602 7.23313 19.1631 8.90077 19.1633C10.8195 19.1633 12.6245 18.4206 13.9816 17.0721C14.1219 16.9327 14.2008 16.7433 14.2008 16.5463C14.2008 16.349 14.1219 16.1598 13.9816 16.0206C13.8585 15.8981 13.7314 15.7808 13.6011 15.6685C15.0252 15.4112 16.3359 14.7323 17.3813 13.6936C17.5216 13.5542 17.6003 13.3651 17.6003 13.168C17.6003 12.9707 17.5216 12.7818 17.3813 12.6424C17.258 12.5198 17.1312 12.4025 17.0008 12.2902C18.4203 12.0337 19.7271 11.3585 20.7708 10.3252C20.8436 10.2557 20.9028 10.1708 20.943 10.0741C21.0589 9.79634 20.9948 9.47671 20.7809 9.26395ZM18.3112 2.67259C18.1403 3.87927 17.5835 4.99361 16.701 5.87041C15.9323 6.63414 14.9824 7.1524 13.9475 7.38549L13.9436 7.38646C13.7918 7.42053 13.6381 7.4486 13.483 7.47028C13.8374 4.99129 15.8166 3.02494 18.3112 2.67259ZM11.1486 1.87343C11.8867 2.84702 12.2859 4.02621 12.2859 5.26658C12.2859 6.50676 11.8865 7.68614 11.1486 8.65954C10.4106 7.68634 10.0112 6.50695 10.0112 5.26658C10.0112 4.02641 10.4106 2.84683 11.1486 1.87343ZM7.74901 5.25264C9.26176 7.25462 9.26157 10.0352 7.74882 12.037C6.23626 10.0352 6.23626 7.25462 7.74901 5.25264ZM4.34946 8.63012C5.08743 9.60352 5.4868 10.7829 5.4868 12.0231C5.4868 13.2634 5.08743 14.4428 4.34946 15.4162C3.6113 14.4428 3.21212 13.2634 3.21212 12.0233C3.21212 10.7829 3.6113 9.60352 4.34946 8.63012ZM8.90154 17.6765C7.65335 17.6763 6.46595 17.2796 5.48661 16.5463C6.46615 15.8129 7.65296 15.416 8.90116 15.416C10.1492 15.416 11.336 15.8127 12.3155 16.5463C11.336 17.2798 10.1493 17.6765 8.90154 17.6765ZM12.3005 14.2982C11.0525 14.2982 9.86569 13.9013 8.88615 13.168C9.86589 12.4347 11.0527 12.0378 12.3009 12.0378C13.5489 12.0378 14.7357 12.4345 15.7151 13.1678C14.7353 13.9013 13.5487 14.2982 12.3005 14.2982ZM15.7003 10.92C14.4521 10.92 13.2652 10.5231 12.2857 9.78956C12.8953 9.33326 13.5853 9.00744 14.3202 8.82623C14.3315 8.82352 14.3428 8.821 14.3543 8.81829C14.7897 8.71375 15.2409 8.65954 15.7003 8.65954C16.9484 8.65954 18.1351 9.05622 19.1146 9.78956C18.1351 10.5231 16.9482 10.92 15.7003 10.92Z" fill="#08121D"/>
</svg>
