<svg width="11" height="23" viewBox="0 0 11 23" fill="none" xmlns="http://www.w3.org/2000/svg">
<path d="M9.74875 6.39064C9.51958 6.00392 9.24745 5.65301 8.93234 5.33791C8.63156 5.0228 8.29497 4.75783 7.92258 4.54298C7.83664 4.48569 7.77219 4.42124 7.72922 4.34962C7.70057 4.26369 7.69341 4.17059 7.70773 4.07033C7.7507 3.91278 7.78651 3.73374 7.81516 3.53322C7.8438 3.3327 7.85812 3.13934 7.85812 2.95314C7.85812 2.23699 7.60747 1.62827 7.10617 1.12697C6.60487 0.625666 5.99615 0.375015 5.28 0.375015C4.56385 0.375015 3.95513 0.625666 3.45383 1.12697C2.95253 1.62827 2.70187 2.23699 2.70187 2.95314C2.70187 3.13934 2.7162 3.3327 2.74484 3.53322C2.77349 3.73374 2.8093 3.91278 2.85227 4.07033C2.86659 4.17059 2.85227 4.26369 2.8093 4.34962C2.78065 4.42124 2.72336 4.48569 2.63742 4.54298C2.26503 4.75783 1.92128 5.0228 1.60617 5.33791C1.30539 5.65301 1.04042 6.00392 0.81125 6.39064C0.582083 6.77736 0.410208 7.19272 0.295625 7.63673C0.181041 8.06642 0.12375 8.51043 0.12375 8.96877C0.12375 9.06903 0.12375 9.74936 0.12375 11.0098C0.12375 12.2559 0.12375 13.6309 0.12375 15.1348C0.12375 16.6244 0.12375 18.0137 0.12375 19.3027C0.12375 20.5918 0.12375 21.3294 0.12375 21.5156C0.12375 21.7591 0.202526 21.9597 0.360078 22.1172C0.531953 22.2891 0.739635 22.375 0.983125 22.375H9.57687C9.82036 22.375 10.0209 22.2891 10.1784 22.1172C10.3503 21.9597 10.4362 21.7591 10.4362 21.5156C10.4362 21.3867 10.4362 20.6921 10.4362 19.4317C10.4362 18.1712 10.4362 16.7962 10.4362 15.3067C10.4362 13.8171 10.4362 12.4277 10.4362 11.1387C10.4362 9.86395 10.4362 9.14064 10.4362 8.96877C10.4362 8.51043 10.379 8.06642 10.2644 7.63673C10.1498 7.19272 9.97792 6.77736 9.74875 6.39064ZM3.51828 6.00392C3.91932 5.77475 4.20578 5.45249 4.37766 5.03712C4.56385 4.60744 4.61398 4.17059 4.52805 3.72658C4.47075 3.49741 4.43495 3.31837 4.42062 3.18947C4.42062 3.06056 4.42062 2.98179 4.42062 2.95314C4.42062 2.70965 4.4994 2.50913 4.65695 2.35158C4.82883 2.1797 5.03651 2.09377 5.28 2.09377C5.52349 2.09377 5.72401 2.1797 5.88156 2.35158C6.05344 2.50913 6.13937 2.70965 6.13937 2.95314C6.13937 2.98179 6.13221 3.06056 6.11789 3.18947C6.11789 3.31837 6.08924 3.49741 6.03195 3.72658C5.94602 4.17059 5.98898 4.60744 6.16086 5.03712C6.34706 5.45249 6.64068 5.77475 7.04172 6.00392C7.50005 6.29038 7.87245 6.66994 8.15891 7.14259C8.45969 7.60093 8.63872 8.09507 8.69602 8.62502H1.86398C1.92128 8.09507 2.09315 7.60093 2.37961 7.14259C2.68039 6.66994 3.05995 6.29038 3.51828 6.00392ZM8.7175 20.6563H1.8425V12.9219H8.7175V20.6563ZM8.7175 11.2031H1.8425V10.3438H8.7175V11.2031Z" fill="#08121E"/>
</svg>
