<svg width="23" height="17" viewBox="0 0 23 17" fill="none" xmlns="http://www.w3.org/2000/svg">
<path d="M21.4206 0.640625H1.13937C0.895885 0.640625 0.688203 0.726562 0.516328 0.898438C0.358776 1.05599 0.28 1.25651 0.28 1.5V15.25C0.28 15.4935 0.358776 15.7012 0.516328 15.873C0.688203 16.0306 0.895885 16.1094 1.13937 16.1094H21.4206C21.6641 16.1094 21.8646 16.0306 22.0222 15.873C22.1941 15.7012 22.28 15.4935 22.28 15.25V1.5C22.28 1.25651 22.1941 1.05599 22.0222 0.898438C21.8646 0.726562 21.6641 0.640625 21.4206 0.640625ZM1.99875 2.35938H3.80344L1.99875 4.16406V2.35938ZM1.99875 14.3906V12.5859L3.80344 14.3906H1.99875ZM20.5612 14.3906H18.7566L20.5612 12.5859V14.3906ZM20.5612 10.1582L16.3288 14.3906H6.23117L1.99875 10.1582V6.5918L6.23117 2.35938H16.3288L20.5612 6.5918V10.1582ZM20.5612 4.16406L18.7566 2.35938H20.5612V4.16406ZM11.28 5.36719C10.4493 5.36719 9.74029 5.66081 9.15305 6.24805C8.56581 6.83529 8.27219 7.54427 8.27219 8.375C8.27219 9.20573 8.56581 9.91471 9.15305 10.502C9.74029 11.0892 10.4493 11.3828 11.28 11.3828C12.1107 11.3828 12.8197 11.0892 13.407 10.502C13.9942 9.91471 14.2878 9.20573 14.2878 8.375C14.2878 7.54427 13.9942 6.83529 13.407 6.24805C12.8197 5.66081 12.1107 5.36719 11.28 5.36719ZM11.28 9.66406C10.9219 9.66406 10.614 9.54232 10.3562 9.29883C10.1127 9.04102 9.99094 8.73307 9.99094 8.375C9.99094 8.01693 10.1127 7.71615 10.3562 7.47266C10.614 7.21484 10.9219 7.08594 11.28 7.08594C11.6381 7.08594 11.9389 7.21484 12.1823 7.47266C12.4402 7.71615 12.5691 8.01693 12.5691 8.375C12.5691 8.73307 12.4402 9.04102 12.1823 9.29883C11.9389 9.54232 11.6381 9.66406 11.28 9.66406Z" fill="#08121E"/>
</svg>
