<svg width="23" height="23" viewBox="0 0 23 23" fill="none" xmlns="http://www.w3.org/2000/svg">
<path d="M21.4206 17.3906H20.7331V14.9844C20.7331 14.7409 20.6472 14.5404 20.4753 14.3828C20.3178 14.2109 20.1172 14.125 19.8737 14.125H18.5847V9.22656H21.4206C21.6068 9.22656 21.7715 9.17643 21.9148 9.07617C22.0723 8.96159 22.1797 8.8112 22.237 8.625C22.2943 8.45312 22.2943 8.28125 22.237 8.10938C22.1797 7.92318 22.0723 7.77279 21.9148 7.6582L11.7741 0.525391C11.6309 0.42513 11.4662 0.375 11.28 0.375C11.0938 0.375 10.9291 0.42513 10.7859 0.525391L0.645234 7.6582C0.487682 7.77279 0.38026 7.92318 0.322968 8.10938C0.265677 8.28125 0.265677 8.45312 0.322968 8.625C0.38026 8.8112 0.480521 8.96159 0.62375 9.07617C0.781302 9.17643 0.953177 9.22656 1.13937 9.22656H3.97531V14.125H2.68625C2.44276 14.125 2.23508 14.2109 2.0632 14.3828C1.90565 14.5404 1.82687 14.7409 1.82687 14.9844V17.3906H1.13937C0.895885 17.3906 0.688203 17.4766 0.516328 17.6484C0.358776 17.806 0.28 18.0065 0.28 18.25V21.5156C0.28 21.7591 0.358776 21.9596 0.516328 22.1172C0.688203 22.2891 0.895885 22.375 1.13937 22.375H21.4206C21.6641 22.375 21.8646 22.2891 22.0222 22.1172C22.1941 21.9596 22.28 21.7591 22.28 21.5156V18.25C22.28 18.0065 22.1941 17.806 22.0222 17.6484C21.8646 17.4766 21.6641 17.3906 21.4206 17.3906ZM3.84641 7.50781L11.28 2.28711L18.7136 7.50781H3.84641ZM16.8659 9.22656V14.125H12.1394V9.22656H16.8659ZM10.4206 9.22656V14.125H5.69406V9.22656H10.4206ZM3.54562 15.8438H19.0144V17.3906H3.54562V15.8438ZM1.99875 20.6562V19.1094C2.12766 19.1094 3.14458 19.1094 5.04953 19.1094C6.95448 19.1094 9.0313 19.1094 11.28 19.1094C13.543 19.1094 15.627 19.1094 17.532 19.1094C19.4369 19.1094 20.4467 19.1094 20.5612 19.1094V20.6562H1.99875ZM12.3542 5.23047C12.3542 5.53125 12.2468 5.78906 12.032 6.00391C11.8314 6.20443 11.5808 6.30469 11.28 6.30469C10.9792 6.30469 10.7214 6.20443 10.5066 6.00391C10.306 5.78906 10.2058 5.53125 10.2058 5.23047C10.2058 4.92969 10.306 4.67904 10.5066 4.47852C10.7214 4.26367 10.9792 4.15625 11.28 4.15625C11.5808 4.15625 11.8314 4.26367 12.032 4.47852C12.2468 4.67904 12.3542 4.92969 12.3542 5.23047Z" fill="#08121E"/>
</svg>
