<svg width="23" height="16" viewBox="0 0 23 16" fill="none" xmlns="http://www.w3.org/2000/svg">
<path d="M20.0456 6.46289V4.72266C20.0456 3.67708 19.6732 2.7819 18.9284 2.03711C18.1836 1.27799 17.2813 0.898438 16.2214 0.898438H6.33859C5.2787 0.898438 4.37635 1.27799 3.63156 2.03711C2.88677 2.7819 2.51437 3.67708 2.51437 4.72266V6.46289C1.86984 6.64909 1.33273 7.01432 0.903047 7.55859C0.487682 8.10286 0.28 8.72591 0.28 9.42773V14.1328C0.28 14.3763 0.358776 14.584 0.516328 14.7559C0.688203 14.9134 0.895885 14.9922 1.13937 14.9922H2.51437C2.51437 15.2357 2.59315 15.4434 2.7507 15.6152C2.92258 15.7728 3.13026 15.8516 3.37375 15.8516C3.60292 15.8516 3.80344 15.7728 3.97531 15.6152C4.14719 15.4434 4.23312 15.2357 4.23312 14.9922H18.3269C18.3269 15.2357 18.4128 15.4434 18.5847 15.6152C18.7566 15.7728 18.9571 15.8516 19.1862 15.8516C19.4297 15.8516 19.6303 15.7728 19.7878 15.6152C19.9597 15.4434 20.0456 15.2357 20.0456 14.9922H21.4206C21.6641 14.9922 21.8646 14.9134 22.0222 14.7559C22.1941 14.584 22.28 14.3763 22.28 14.1328V9.42773C22.28 8.72591 22.0652 8.10286 21.6355 7.55859C21.2201 7.01432 20.6902 6.64909 20.0456 6.46289ZM4.23312 4.72266C4.23312 4.14974 4.43365 3.6556 4.83469 3.24023C5.25005 2.82487 5.75135 2.61719 6.33859 2.61719H16.2214C16.8086 2.61719 17.3028 2.82487 17.7038 3.24023C18.1192 3.6556 18.3269 4.14974 18.3269 4.72266V6.46289C17.7826 6.62044 17.3171 6.91406 16.9304 7.34375C16.5437 7.75911 16.293 8.25326 16.1784 8.82617H6.38156C6.2813 8.26758 6.03781 7.77344 5.65109 7.34375C5.26437 6.91406 4.79172 6.62044 4.23312 6.46289V4.72266ZM20.5612 13.2734H1.99875V9.42773C1.99875 9.05534 2.12766 8.73307 2.38547 8.46094C2.6576 8.1888 2.98703 8.05273 3.37375 8.05273C3.74615 8.05273 4.06125 8.1888 4.31906 8.46094C4.5912 8.73307 4.72727 9.05534 4.72727 9.42773V9.68555C4.72727 9.91471 4.8132 10.1152 4.98508 10.2871C5.15695 10.459 5.35747 10.5449 5.58664 10.5449H16.9734C17.2025 10.5449 17.403 10.459 17.5749 10.2871C17.7468 10.1152 17.8327 9.91471 17.8327 9.68555V9.42773C17.8327 9.05534 17.9616 8.73307 18.2195 8.46094C18.4916 8.1888 18.8139 8.05273 19.1862 8.05273C19.573 8.05273 19.8952 8.1888 20.153 8.46094C20.4252 8.73307 20.5612 9.05534 20.5612 9.42773V13.2734Z" fill="#08121E"/>
</svg>
