<svg width="21" height="21" viewBox="0 0 21 21" fill="none" xmlns="http://www.w3.org/2000/svg">
<path fill-rule="evenodd" clip-rule="evenodd" d="M0.0191578 8.67575C-0.155064 11.3561 0.865472 13.9896 2.81643 15.9013C2.96598 16.0477 3.16704 16.1299 3.37642 16.1299H7.74928L9.69952 18.1126V20.2C9.69952 20.6419 10.0579 21 10.4995 21H12.9146C13.3565 21 13.7146 20.6419 13.7146 20.2V17.7851C13.7146 17.3432 13.3565 16.9851 12.9146 16.9851H12.5071V13.0094C13.2423 12.4201 13.7146 11.5144 13.7146 10.5V10.0925H20.2C20.6418 10.0925 21 9.7344 21 9.29253C21 4.16392 16.8063 0 11.7071 0H9.61167C4.67052 0 0.338514 3.76448 0.0191578 8.67575ZM11.2996 19.4V18.5851H12.1146V19.4H11.2996ZM10.907 16.9851H10.8349L8.88452 15.0024V13.7149H10.4995C10.6375 13.7149 10.7735 13.7062 10.907 13.6892V16.9851ZM12.9146 8.49253C12.4729 8.49253 12.1146 8.85063 12.1146 9.29253V10.5C12.1146 11.3903 11.3899 12.1149 10.4995 12.1149H8.0845C7.64282 12.1149 7.28448 12.473 7.28448 12.9149V14.5299H3.7123C2.23922 12.9657 1.47884 10.8875 1.61586 8.77951C1.8229 5.59551 4.1909 2.87724 7.28448 1.94438V5.48038C7.28448 5.92228 7.64282 6.28037 8.0845 6.28037C8.52637 6.28037 8.88452 5.92225 8.88452 5.48038V1.63356C9.12476 1.61152 9.36724 1.59999 9.61167 1.59999H9.69952V5.48038C9.69952 5.92228 10.0579 6.28037 10.4995 6.28037C10.9414 6.28037 11.2996 5.92225 11.2996 5.48038V1.59999H11.7071C11.8437 1.59999 11.9796 1.60371 12.1146 1.61086V5.48038C12.1146 5.92228 12.4729 6.28037 12.9146 6.28037C13.3565 6.28037 13.7146 5.92225 13.7146 5.48038V1.86619C16.7371 2.68393 19.0276 5.30198 19.3587 8.49253H12.9146ZM9.39603 7.35981C8.27311 7.35981 7.35982 8.2731 7.35982 9.39603C7.35982 10.519 8.27311 11.4322 9.39603 11.4322C10.519 11.4322 11.4322 10.519 11.4322 9.39603C11.4322 8.2731 10.519 7.35981 9.39603 7.35981ZM9.39603 9.81308C9.1663 9.81308 8.97897 9.62576 8.97897 9.39603C8.97897 9.1663 9.1663 8.97897 9.39603 8.97897C9.62589 8.97897 9.81309 9.16626 9.81309 9.39603C9.81309 9.62579 9.62589 9.81308 9.39603 9.81308Z" fill="#08121D"/>
</svg>
