<svg width="23" height="23" viewBox="0 0 23 23" fill="none" xmlns="http://www.w3.org/2000/svg">
<path d="M6.55344 13.9531H8.70187V16.1016C8.70187 16.3451 8.78065 16.5527 8.9382 16.7246C9.11008 16.8822 9.31776 16.9609 9.56125 16.9609H12.9987C13.2422 16.9609 13.4428 16.8822 13.6003 16.7246C13.7722 16.5527 13.8581 16.3451 13.8581 16.1016V13.9531H16.0066C16.2501 13.9531 16.4506 13.8743 16.6081 13.7168C16.78 13.5449 16.8659 13.3372 16.8659 13.0938V9.65625C16.8659 9.41276 16.78 9.21224 16.6081 9.05469C16.4506 8.88281 16.2501 8.79688 16.0066 8.79688H13.8581V6.64844C13.8581 6.40495 13.7722 6.20443 13.6003 6.04688C13.4428 5.875 13.2422 5.78906 12.9987 5.78906H9.56125C9.31776 5.78906 9.11008 5.875 8.9382 6.04688C8.78065 6.20443 8.70187 6.40495 8.70187 6.64844V8.79688H6.55344C6.30995 8.79688 6.10227 8.88281 5.93039 9.05469C5.77284 9.21224 5.69406 9.41276 5.69406 9.65625V13.0938C5.69406 13.3372 5.77284 13.5449 5.93039 13.7168C6.10227 13.8743 6.30995 13.9531 6.55344 13.9531ZM7.41281 10.5156H9.56125C9.80474 10.5156 10.0053 10.4368 10.1628 10.2793C10.3347 10.1074 10.4206 9.89974 10.4206 9.65625V7.50781H12.1394V9.65625C12.1394 9.89974 12.2182 10.1074 12.3757 10.2793C12.5476 10.4368 12.7553 10.5156 12.9987 10.5156H15.1472V12.2344H12.9987C12.7553 12.2344 12.5476 12.3203 12.3757 12.4922C12.2182 12.6497 12.1394 12.8503 12.1394 13.0938V15.2422H10.4206V13.0938C10.4206 12.8503 10.3347 12.6497 10.1628 12.4922C10.0053 12.3203 9.80474 12.2344 9.56125 12.2344H7.41281V10.5156ZM21.4206 0.375H1.13937C0.895885 0.375 0.688203 0.460938 0.516328 0.632812C0.358776 0.790365 0.28 0.990885 0.28 1.23438V21.5156C0.28 21.7591 0.358776 21.9596 0.516328 22.1172C0.688203 22.2891 0.895885 22.375 1.13937 22.375H21.4206C21.6641 22.375 21.8646 22.2891 22.0222 22.1172C22.1941 21.9596 22.28 21.7591 22.28 21.5156V1.23438C22.28 0.990885 22.1941 0.790365 22.0222 0.632812C21.8646 0.460938 21.6641 0.375 21.4206 0.375ZM20.5612 20.6562H1.99875V2.09375H20.5612V20.6562Z" fill="#08121E"/>
</svg>
