<svg width="17" height="23" viewBox="0 0 17 23" fill="none" xmlns="http://www.w3.org/2000/svg">
<path d="M15.155 2.52344H11.1589C10.9727 1.90755 10.6146 1.39909 10.0847 0.998047C9.55474 0.582682 8.95318 0.375 8.28 0.375C7.60682 0.375 7.00526 0.582682 6.47531 0.998047C5.94536 1.39909 5.58729 1.90755 5.40109 2.52344H1.405C1.16151 2.52344 0.953828 2.60938 0.781953 2.78125C0.624401 2.9388 0.545625 3.13932 0.545625 3.38281C0.545625 3.6263 0.624401 3.83398 0.781953 4.00586C0.953828 4.16341 1.16151 4.24219 1.405 4.24219H5.40109C5.45839 4.42839 5.53 4.60742 5.61594 4.7793C5.70187 4.93685 5.80214 5.0944 5.91672 5.25195C5.08599 5.68164 4.41281 6.30469 3.89719 7.12109C3.38156 7.92318 3.12375 8.82552 3.12375 9.82812V18.25C3.12375 18.4935 3.20253 18.7012 3.36008 18.873C3.53195 19.0306 3.73964 19.1094 3.98312 19.1094H5.91672V20.0117C5.91672 20.6562 6.14589 21.2077 6.60422 21.666C7.07687 22.1387 7.63547 22.375 8.28 22.375C8.92453 22.375 9.47596 22.1387 9.9343 21.666C10.407 21.2077 10.6433 20.6562 10.6433 20.0117V19.1094H12.5769C12.8204 19.1094 13.0209 19.0306 13.1784 18.873C13.3503 18.7012 13.4362 18.4935 13.4362 18.25V9.82812C13.4362 8.82552 13.1784 7.92318 12.6628 7.12109C12.1472 6.30469 11.474 5.68164 10.6433 5.25195C10.7579 5.0944 10.8581 4.93685 10.9441 4.7793C11.03 4.60742 11.1016 4.42839 11.1589 4.24219H15.155C15.3985 4.24219 15.599 4.16341 15.7566 4.00586C15.9284 3.83398 16.0144 3.6263 16.0144 3.38281C16.0144 3.13932 15.9284 2.9388 15.7566 2.78125C15.599 2.60938 15.3985 2.52344 15.155 2.52344ZM8.28 2.09375C8.63807 2.09375 8.93885 2.22266 9.18234 2.48047C9.44016 2.72396 9.56906 3.02474 9.56906 3.38281C9.56906 3.74089 9.44016 4.04883 9.18234 4.30664C8.93885 4.55013 8.63807 4.67188 8.28 4.67188C7.92193 4.67188 7.61398 4.55013 7.35617 4.30664C7.11268 4.04883 6.99094 3.74089 6.99094 3.38281C6.99094 3.02474 7.11268 2.72396 7.35617 2.48047C7.61398 2.22266 7.92193 2.09375 8.28 2.09375ZM8.92453 20.0117C8.92453 20.1836 8.86008 20.334 8.73117 20.4629C8.60227 20.5918 8.45187 20.6562 8.28 20.6562C8.10812 20.6562 7.95773 20.5918 7.82883 20.4629C7.69992 20.334 7.63547 20.1836 7.63547 20.0117C7.63547 19.8542 7.63547 19.4245 7.63547 18.7227C7.63547 18.0208 7.63547 17.5911 7.63547 17.4336C7.63547 17.2617 7.69992 17.1113 7.82883 16.9824C7.95773 16.8535 8.10812 16.7891 8.28 16.7891C8.45187 16.7891 8.60227 16.8535 8.73117 16.9824C8.86008 17.1113 8.92453 17.2617 8.92453 17.4336C8.92453 17.5911 8.92453 18.0208 8.92453 18.7227C8.92453 19.4245 8.92453 19.8542 8.92453 20.0117ZM11.7175 9.82812V17.3906H10.6433C10.629 16.7461 10.3855 16.2018 9.91281 15.7578C9.45448 15.2995 8.91021 15.0703 8.28 15.0703C7.63547 15.0703 7.08404 15.2995 6.6257 15.7578C6.16737 16.2018 5.93104 16.7461 5.91672 17.3906H4.8425V9.82812C4.8425 8.88281 5.17909 8.07357 5.85227 7.40039C6.52544 6.72721 7.33469 6.39062 8.28 6.39062C9.22531 6.39062 10.0346 6.72721 10.7077 7.40039C11.3809 8.07357 11.7175 8.88281 11.7175 9.82812Z" fill="#08121E"/>
</svg>
