<svg width="21" height="22" viewBox="0 0 21 22" fill="none" xmlns="http://www.w3.org/2000/svg">
<path d="M18.8093 4.05859L11.4616 0.384766C11.1036 0.198568 10.7025 0.105469 10.2585 0.105469C9.82883 0.105469 9.4063 0.198568 8.99094 0.384766L1.66477 4.05859C1.20643 4.28776 0.848359 4.61719 0.590547 5.04688C0.332734 5.46224 0.203828 5.92773 0.203828 6.44336V15.1445C0.203828 15.6458 0.332734 16.1257 0.590547 16.584C0.862682 17.0423 1.2494 17.3861 1.7507 17.6152L9.09836 21.2891C9.27023 21.375 9.46359 21.4395 9.67844 21.4824C9.89328 21.5397 10.0938 21.5684 10.28 21.5684C10.5092 21.5684 10.7168 21.5397 10.903 21.4824C11.1036 21.4395 11.2898 21.375 11.4616 21.2891L18.8093 17.6152C19.2676 17.3861 19.64 17.0566 19.9265 16.627C20.2129 16.1829 20.3562 15.6888 20.3562 15.1445V6.44336C20.3562 5.92773 20.2201 5.46224 19.948 5.04688C19.6902 4.61719 19.3106 4.28776 18.8093 4.05859ZM9.91477 1.93164C9.95773 1.88867 10.015 1.86719 10.0866 1.86719C10.1726 1.85286 10.237 1.8457 10.28 1.8457C10.3659 1.8457 10.4376 1.85286 10.4948 1.86719C10.5521 1.86719 10.6023 1.88867 10.6452 1.93164L17.4343 5.32617L14.8562 6.61523L7.72336 3.04883L9.91477 1.93164ZM10.28 8.91406L3.1257 5.32617L5.70383 4.05859L12.8366 7.625L10.28 8.91406ZM2.48117 16.0684C2.35227 15.9681 2.24484 15.8392 2.15891 15.6816C2.07297 15.5241 2.03 15.3737 2.03 15.2305V6.80859L9.35617 10.4609V19.4414L2.48117 16.0684ZM17.9714 16.0684L11.2038 19.4414V10.4609L18.53 6.80859V15.2305C18.53 15.4167 18.4799 15.5814 18.3796 15.7246C18.2937 15.8535 18.1576 15.9681 17.9714 16.0684Z" fill="#08121E"/>
</svg>
