<svg width="16" height="21" viewBox="0 0 16 21" fill="none" xmlns="http://www.w3.org/2000/svg">
<path d="M12.8562 0.75H3.70383C2.91607 0.75 2.25721 1.01497 1.72727 1.54492C1.21164 2.07487 0.953828 2.72656 0.953828 3.5V18.1738C0.953828 18.9473 1.21164 19.599 1.72727 20.1289C2.25721 20.6589 2.91607 20.9238 3.70383 20.9238H12.8562C13.6439 20.9238 14.2956 20.6589 14.8112 20.1289C15.3412 19.599 15.6062 18.9473 15.6062 18.1738V3.5C15.6062 2.72656 15.3412 2.07487 14.8112 1.54492C14.2956 1.01497 13.6439 0.75 12.8562 0.75ZM13.78 18.1738C13.78 18.446 13.6941 18.668 13.5222 18.8398C13.3646 18.9974 13.1426 19.0762 12.8562 19.0762H3.70383C3.41737 19.0762 3.1882 18.9974 3.01633 18.8398C2.85878 18.668 2.78 18.446 2.78 18.1738V3.5C2.78 3.22786 2.85878 3.00586 3.01633 2.83398C3.1882 2.66211 3.41737 2.57617 3.70383 2.57617H12.8562C13.1426 2.57617 13.3646 2.66211 13.5222 2.83398C13.6941 3.00586 13.78 3.22786 13.78 3.5V18.1738ZM7.63547 15.6816C7.54953 15.7819 7.47792 15.8822 7.42062 15.9824C7.37766 16.0827 7.35617 16.1973 7.35617 16.3262C7.35617 16.4694 7.37766 16.5911 7.42062 16.6914C7.47792 16.7917 7.54953 16.8848 7.63547 16.9707C7.73573 17.071 7.82883 17.1426 7.91477 17.1855C8.01503 17.2285 8.13677 17.25 8.28 17.25C8.42323 17.25 8.53781 17.2285 8.62375 17.1855C8.72401 17.1426 8.82427 17.071 8.92453 16.9707C9.01047 16.8848 9.07492 16.7845 9.11789 16.6699C9.17518 16.541 9.20383 16.4264 9.20383 16.3262C9.20383 16.2402 9.17518 16.14 9.11789 16.0254C9.07492 15.8965 9.01047 15.7819 8.92453 15.6816C8.73833 15.5098 8.52349 15.4238 8.28 15.4238C8.03651 15.4238 7.82167 15.5098 7.63547 15.6816Z" fill="#08121E"/>
</svg>
