<svg width="14" height="26" viewBox="0 0 14 26" fill="none" xmlns="http://www.w3.org/2000/svg">
<path d="M13.6892 20.9024L10.7185 6.91212C11.074 6.5228 11.3364 6.09116 11.5056 5.6172C11.6749 5.12632 11.7511 4.6185 11.7341 4.09377C11.7003 3.61981 11.5903 3.17124 11.4041 2.74806C11.2179 2.30796 10.9555 1.91864 10.617 1.58009C10.2784 1.24155 9.88909 0.979182 9.44898 0.792984C9.02581 0.589859 8.57724 0.479833 8.10328 0.462906C7.56161 0.429052 7.04534 0.505224 6.55445 0.691422C6.06357 0.860692 5.62346 1.13153 5.23414 1.50392C4.84482 1.87632 4.54859 2.30796 4.34547 2.79884C4.14234 3.2728 4.04078 3.77215 4.04078 4.29689C4.04078 4.78778 4.12542 5.26173 4.29469 5.71877C4.46396 6.15887 4.71786 6.55666 5.05641 6.91212L5.03102 7.06447C4.91253 7.57228 4.69247 8.04624 4.37086 8.48634C4.04924 8.92645 3.65146 9.29038 3.1775 9.57814C2.38193 10.0521 1.74716 10.7038 1.2732 11.5332C0.816172 12.3457 0.587656 13.2175 0.587656 14.1485C0.587656 14.9779 0.76539 15.7565 1.12086 16.4844C1.47633 17.2123 1.97568 17.8301 2.61891 18.3379L2.06031 20.9024C2.04339 21.0208 2.04339 21.1478 2.06031 21.2832C2.09417 21.4017 2.15341 21.5117 2.23805 21.6133C2.32268 21.7149 2.41578 21.791 2.51734 21.8418C2.63583 21.8926 2.76279 21.918 2.8982 21.918H5.48805V23.4668C5.48805 23.7884 5.54729 24.1016 5.66578 24.4063C5.8012 24.711 5.9874 24.9818 6.22437 25.2188C6.44443 25.4388 6.69833 25.6081 6.98609 25.7266C7.27385 25.8451 7.57008 25.9043 7.87477 25.9043C7.89169 25.9043 7.90862 25.9043 7.92555 25.9043C8.56878 25.8874 9.11891 25.6419 9.57594 25.168C10.033 24.711 10.2615 24.1608 10.2615 23.5176V21.918H12.8513C12.9867 21.918 13.1052 21.8926 13.2068 21.8418C13.3253 21.791 13.4268 21.7149 13.5115 21.6133C13.5961 21.5117 13.6554 21.4017 13.6892 21.2832C13.7231 21.1478 13.7231 21.0208 13.6892 20.9024ZM8.43336 21.918V23.4922C8.43336 23.6445 8.38258 23.78 8.28102 23.8985C8.17945 24 8.04404 24.0508 7.87477 24.0508C7.72242 24.0508 7.587 24 7.46852 23.8985C7.36695 23.78 7.31617 23.6445 7.31617 23.4922V21.918H8.43336ZM4.67555 17.4746L4.11695 17.1445C3.59221 16.8229 3.1775 16.3998 2.87281 15.875C2.56812 15.3333 2.41578 14.7578 2.41578 14.1485C2.41578 13.5222 2.56812 12.9466 2.87281 12.4219C3.1775 11.8802 3.60068 11.457 4.14234 11.1524C4.71786 10.7969 5.21721 10.3652 5.64039 9.85744C6.06357 9.34962 6.38518 8.78257 6.60523 8.15627H9.09352L11.658 20.0899H4.11695L4.67555 17.4746ZM7.87477 6.32814C7.31617 6.32814 6.84221 6.13348 6.45289 5.74416C6.06357 5.33791 5.86891 4.85548 5.86891 4.29689C5.86891 3.7383 6.06357 3.26434 6.45289 2.87502C6.84221 2.46877 7.31617 2.26564 7.87477 2.26564C8.43336 2.26564 8.90732 2.46877 9.29664 2.87502C9.70289 3.26434 9.90602 3.7383 9.90602 4.29689C9.90602 4.85548 9.70289 5.33791 9.29664 5.74416C8.90732 6.13348 8.43336 6.32814 7.87477 6.32814ZM8.78883 10.4414V13.9961C8.78883 14.2331 8.70419 14.4362 8.53492 14.6055C8.36565 14.7748 8.16253 14.8594 7.92555 14.8594H5.15797C4.90406 14.8594 4.69247 14.7748 4.5232 14.6055C4.35393 14.4362 4.2693 14.2331 4.2693 13.9961V13.9199C4.2693 13.666 4.35393 13.4544 4.5232 13.2852C4.69247 13.1159 4.90406 13.0313 5.15797 13.0313H6.83375C6.8676 13.0313 6.90146 13.0228 6.93531 13.0059C6.96917 12.972 6.98609 12.9382 6.98609 12.9043V10.4414C6.98609 10.1875 7.07073 9.97593 7.24 9.80666C7.40927 9.63739 7.6124 9.55275 7.84937 9.55275H7.92555C8.16253 9.55275 8.36565 9.63739 8.53492 9.80666C8.70419 9.97593 8.78883 10.1875 8.78883 10.4414Z" fill="#08121E"/>
</svg>
