<svg width="23" height="20" viewBox="0 0 23 20" fill="none" xmlns="http://www.w3.org/2000/svg">
<path d="M21.4206 4.35938H15.1472V1.78125C15.1472 1.53776 15.0612 1.33724 14.8894 1.17969C14.7318 1.00781 14.5313 0.921875 14.2878 0.921875H8.27219C8.0287 0.921875 7.82102 1.00781 7.64914 1.17969C7.49159 1.33724 7.41281 1.53776 7.41281 1.78125V4.35938H1.13937C0.895885 4.35938 0.688203 4.44531 0.516328 4.61719C0.358776 4.77474 0.28 4.97526 0.28 5.21875V18.9688C0.28 19.2122 0.358776 19.4199 0.516328 19.5918C0.688203 19.7493 0.895885 19.8281 1.13937 19.8281H21.4206C21.6641 19.8281 21.8646 19.7493 22.0222 19.5918C22.1941 19.4199 22.28 19.2122 22.28 18.9688V5.21875C22.28 4.97526 22.1941 4.77474 22.0222 4.61719C21.8646 4.44531 21.6641 4.35938 21.4206 4.35938ZM9.13156 2.64062H13.4284V4.35938H9.13156V2.64062ZM20.5612 18.1094H1.99875V10.375H7.41281V12.0938C7.41281 12.3372 7.49159 12.5449 7.64914 12.7168C7.82102 12.8743 8.0287 12.9531 8.27219 12.9531H14.2878C14.5313 12.9531 14.7318 12.8743 14.8894 12.7168C15.0612 12.5449 15.1472 12.3372 15.1472 12.0938V10.375H20.5612V18.1094ZM9.13156 11.2344V10.375H13.4284V11.2344H9.13156ZM20.5612 8.65625C20.4896 8.65625 19.487 8.65625 17.5534 8.65625C15.6198 8.65625 13.5072 8.65625 11.2155 8.65625C8.92388 8.65625 6.82557 8.65625 4.92062 8.65625C3.00135 8.65625 2.0274 8.65625 1.99875 8.65625V6.07812C2.18495 6.07812 3.22336 6.07812 5.11398 6.07812C7.00461 6.07812 9.05995 6.07812 11.28 6.07812C13.5001 6.07812 15.5554 6.07812 17.446 6.07812C19.3366 6.07812 20.3751 6.07812 20.5612 6.07812V8.65625Z" fill="#08121E"/>
</svg>
