<svg width="21" height="19" viewBox="0 0 21 19" fill="none" xmlns="http://www.w3.org/2000/svg">
<path d="M19.4538 0.673828H13.9538C13.209 0.673828 12.5144 0.845703 11.8698 1.18945C11.2253 1.51888 10.6954 1.95573 10.28 2.5C9.86464 1.95573 9.33469 1.51888 8.69016 1.18945C8.04562 0.845703 7.35096 0.673828 6.60617 0.673828H1.10617C0.834036 0.673828 0.612031 0.759766 0.440156 0.931641C0.282604 1.08919 0.203828 1.30404 0.203828 1.57617V15.3262C0.203828 15.6126 0.282604 15.8418 0.440156 16.0137C0.612031 16.1712 0.834036 16.25 1.10617 16.25H7.53C8.0313 16.25 8.46099 16.429 8.81906 16.7871C9.17714 17.1452 9.35617 17.5749 9.35617 18.0762C9.35617 18.3626 9.44211 18.5918 9.61398 18.7637C9.78586 18.9212 10.0079 19 10.28 19C10.5521 19 10.7741 18.9212 10.946 18.7637C11.1179 18.5918 11.2038 18.3626 11.2038 18.0762C11.2038 17.5749 11.3829 17.1452 11.7409 16.7871C12.099 16.429 12.5287 16.25 13.03 16.25H19.4538C19.726 16.25 19.9408 16.1712 20.0984 16.0137C20.2702 15.8418 20.3562 15.6126 20.3562 15.3262V1.57617C20.3562 1.30404 20.2702 1.08919 20.0984 0.931641C19.9408 0.759766 19.726 0.673828 19.4538 0.673828ZM9.35617 14.875C9.08404 14.7318 8.79042 14.6243 8.47531 14.5527C8.16021 14.4668 7.8451 14.4238 7.53 14.4238H2.03V2.5H6.60617C7.39393 2.5 8.04562 2.76497 8.56125 3.29492C9.0912 3.82487 9.35617 4.47656 9.35617 5.25V14.875ZM18.53 14.4238H13.03C12.7149 14.4238 12.3998 14.4668 12.0847 14.5527C11.7696 14.6243 11.476 14.7318 11.2038 14.875V5.25C11.2038 4.47656 11.4616 3.82487 11.9773 3.29492C12.5072 2.76497 13.1661 2.5 13.9538 2.5H18.53V14.4238Z" fill="#08121E"/>
</svg>
