<svg width="280" height="2171" viewBox="0 0 280 2171" fill="none" xmlns="http://www.w3.org/2000/svg">
<g filter="url(#filter0_b)">
<path fill-rule="evenodd" clip-rule="evenodd" d="M0 19.2C0 12.4794 0 9.11905 1.30792 6.55211C2.4584 4.29417 4.29417 2.4584 6.55211 1.30792C9.11905 0 12.4794 0 19.2 0H260.8C267.521 0 270.881 0 273.448 1.30792C275.706 2.4584 277.542 4.29417 278.692 6.55211C280 9.11905 280 12.4794 280 19.2V2151.8C280 2158.52 280 2161.88 278.692 2164.45C277.542 2166.71 275.706 2168.54 273.448 2169.69C270.881 2171 267.521 2171 260.8 2171H19.2C12.4794 2171 9.11905 2171 6.55211 2169.69C4.29417 2168.54 2.4584 2166.71 1.30792 2164.45C0 2161.88 0 2158.52 0 2151.8V19.2Z" fill="#FCFCFC" fill-opacity="0.85"/>
<path fill-rule="evenodd" clip-rule="evenodd" d="M0 19.2C0 12.4794 0 9.11905 1.30792 6.55211C2.4584 4.29417 4.29417 2.4584 6.55211 1.30792C9.11905 0 12.4794 0 19.2 0H260.8C267.521 0 270.881 0 273.448 1.30792C275.706 2.4584 277.542 4.29417 278.692 6.55211C280 9.11905 280 12.4794 280 19.2V2151.8C280 2158.52 280 2161.88 278.692 2164.45C277.542 2166.71 275.706 2168.54 273.448 2169.69C270.881 2171 267.521 2171 260.8 2171H19.2C12.4794 2171 9.11905 2171 6.55211 2169.69C4.29417 2168.54 2.4584 2166.71 1.30792 2164.45C0 2161.88 0 2158.52 0 2151.8V19.2Z" fill="white" fill-opacity="0.7" style="mix-blend-mode:soft-light"/>
</g>
<defs>
<filter id="filter0_b" x="-30" y="-30" width="340" height="2231" filterUnits="userSpaceOnUse" color-interpolation-filters="sRGB">
<feFlood flood-opacity="0" result="BackgroundImageFix"/>
<feGaussianBlur in="BackgroundImage" stdDeviation="15"/>
<feComposite in2="SourceAlpha" operator="in" result="effect1_backgroundBlur"/>
<feBlend mode="normal" in="SourceGraphic" in2="effect1_backgroundBlur" result="shape"/>
</filter>
</defs>
</svg>
