<svg width="25" height="22" viewBox="0 0 25 22" fill="none" xmlns="http://www.w3.org/2000/svg">
<path d="M15.7991 4.8047C15.1741 4.8047 14.5569 4.87502 13.9475 5.01564C13.3538 5.14064 12.7913 5.32814 12.26 5.57814C12.01 5.46877 11.76 5.3672 11.51 5.27345C11.26 5.1797 11.0022 5.10158 10.7366 5.03908C10.9709 4.69533 11.1428 4.35939 11.2522 4.03127C11.3772 3.68752 11.4397 3.34377 11.4397 3.00002C11.4397 2.25002 11.1741 1.60939 10.6428 1.07814C10.1116 0.54689 9.47094 0.281265 8.72094 0.281265C7.97094 0.281265 7.33031 0.54689 6.79906 1.07814C6.26781 1.60939 6.00219 2.25002 6.00219 3.00002C6.00219 3.39064 6.0725 3.75783 6.21313 4.10158C6.35375 4.44533 6.51781 4.75783 6.70531 5.03908C5.78344 5.25783 4.93188 5.62502 4.15063 6.14064C3.35375 6.65627 2.66625 7.27345 2.08813 7.9922C1.52563 8.71095 1.08031 9.52345 0.752188 10.4297C0.424063 11.3203 0.26 12.2656 0.26 13.2656C0.26 14.4219 0.47875 15.5156 0.91625 16.5469C1.36938 17.5781 1.97875 18.4766 2.74438 19.2422C3.51 20.0078 4.40844 20.6094 5.43969 21.0469C6.45531 21.5 7.54906 21.7266 8.72094 21.7266C9.34594 21.7266 9.95531 21.6563 10.5491 21.5156C11.1584 21.375 11.7288 21.1875 12.26 20.9531C12.7913 21.1875 13.3538 21.375 13.9475 21.5156C14.5569 21.6563 15.1741 21.7266 15.7991 21.7266C16.9709 21.7266 18.0647 21.5 19.0803 21.0469C20.1116 20.6094 21.01 20.0078 21.7756 19.2422C22.5413 18.4766 23.1506 17.5781 23.6038 16.5469C24.0413 15.5156 24.26 14.4219 24.26 13.2656C24.26 12.0938 24.0413 10.9922 23.6038 9.96095C23.1506 8.9297 22.5413 8.03127 21.7756 7.26564C21.01 6.50002 20.1116 5.89845 19.0803 5.46095C18.0647 5.02345 16.9709 4.8047 15.7991 4.8047ZM8.72094 2.15627C8.95531 2.15627 9.15063 2.2422 9.30688 2.41408C9.47875 2.57033 9.56469 2.76564 9.56469 3.00002C9.56469 3.26564 9.47094 3.53127 9.28344 3.79689C9.11156 4.06252 8.92406 4.29689 8.72094 4.50002C8.51781 4.29689 8.3225 4.06252 8.135 3.79689C7.96313 3.53127 7.87719 3.26564 7.87719 3.00002C7.87719 2.76564 7.95531 2.57033 8.11156 2.41408C8.28344 2.2422 8.48656 2.15627 8.72094 2.15627ZM8.72094 19.8281C7.81469 19.8281 6.96313 19.6563 6.16625 19.3125C5.36938 18.9688 4.66625 18.5 4.05688 17.9063C3.46313 17.3125 2.99438 16.6172 2.65063 15.8203C2.30688 15.0235 2.135 14.1719 2.135 13.2656C2.135 12.3594 2.30688 11.5 2.65063 10.6875C2.99438 9.89064 3.46313 9.19533 4.05688 8.60158C4.66625 8.00783 5.36938 7.53908 6.16625 7.19533C6.96313 6.85158 7.81469 6.6797 8.72094 6.6797C8.98656 6.6797 9.24438 6.69533 9.49438 6.72658C9.76 6.75783 10.0178 6.8047 10.2678 6.8672C9.37719 7.63283 8.66625 8.57033 8.135 9.6797C7.60375 10.7891 7.33813 11.9844 7.33813 13.2656C7.33813 14.5313 7.60375 15.7188 8.135 16.8281C8.66625 17.9375 9.37719 18.8828 10.2678 19.6641C10.0178 19.711 9.76 19.75 9.49438 19.7813C9.24438 19.8125 8.98656 19.8281 8.72094 19.8281ZM12.26 18.7969C11.3381 18.2188 10.5959 17.4453 10.0334 16.4766C9.48656 15.4922 9.21313 14.4219 9.21313 13.2656C9.21313 12.0938 9.48656 11.0235 10.0334 10.0547C10.5959 9.07033 11.3381 8.28908 12.26 7.71095C13.1819 8.28908 13.9163 9.07033 14.4631 10.0547C15.0256 11.0235 15.3069 12.0938 15.3069 13.2656C15.3069 14.4219 15.0256 15.4922 14.4631 16.4766C13.9163 17.4453 13.1819 18.2188 12.26 18.7969ZM15.7991 19.8281C15.5334 19.8281 15.2678 19.8125 15.0022 19.7813C14.7522 19.75 14.5022 19.711 14.2522 19.6641C15.1428 18.8828 15.8538 17.9375 16.385 16.8281C16.9163 15.7188 17.1819 14.5313 17.1819 13.2656C17.1819 11.9844 16.9163 10.7891 16.385 9.6797C15.8538 8.57033 15.1428 7.63283 14.2522 6.8672C14.5022 6.8047 14.7522 6.75783 15.0022 6.72658C15.2678 6.69533 15.5334 6.6797 15.7991 6.6797C16.7053 6.6797 17.5569 6.85158 18.3538 7.19533C19.1506 7.53908 19.8459 8.00783 20.4397 8.60158C21.0491 9.19533 21.5256 9.89064 21.8694 10.6875C22.2131 11.5 22.385 12.3594 22.385 13.2656C22.385 14.1719 22.2131 15.0235 21.8694 15.8203C21.5256 16.6172 21.0491 17.3125 20.4397 17.9063C19.8459 18.5 19.1506 18.9688 18.3538 19.3125C17.5569 19.6563 16.7053 19.8281 15.7991 19.8281Z" fill="#08121E"/>
</svg>
